Coordinates
version=1
nRows=9
nColumns=24
inDegrees=yes

Units are S.I. units (second, meters, Newtons, ...)
Angles are in degrees.

endheader
time	pelvis_tilt	pelvis_list	pelvis_rotation	pelvis_tx	pelvis_ty	pelvis_tz	hip_flexion_r	hip_adduction_r	hip_rotation_r	knee_angle_r	ankle_angle_r	subtalar_angle_r	mtp_angle_r	hip_flexion_l	hip_adduction_l	hip_rotation_l	knee_angle_l	ankle_angle_l	subtalar_angle_l	mtp_angle_l	lumbar_extension	lumbar_bending	lumbar_rotation
      1.42900000	     -1.71974523	     -1.47057220	     -9.54852032	      0.84999250	      0.97577106	      0.33711909	    -22.29015525	      4.13506345	      6.55661257	     -6.52826047	     15.64722833	     -1.02347652	      3.43924675	     32.16207202	     -4.57758472	    -11.75487713	      1.27046033	     13.18646228	     -3.62839378	     -1.98370381	     -4.14643851	     -1.59687276	      7.22704220
      1.43316667	     -1.75331386	     -1.35691923	     -9.73140408	      0.85640458	      0.97468614	      0.33713661	    -22.53826820	      3.87751562	      6.55969028	     -6.65109741	     15.46589652	     -0.91521789	      3.49518525	     32.24180317	     -4.52201848	    -11.65402914	      0.64543710	     13.68195810	     -3.81766635	     -1.94097935	     -4.02532125	     -1.75509948	      7.30598352
      1.43733333	     -1.82272830	     -1.23445802	     -9.92828604	      0.86286988	      0.97356922	      0.33713971	    -22.72051899	      3.60537534	      6.51806376	     -6.82817328	     15.33825090	     -0.65602534	      3.92612682	     32.38628740	     -4.47900840	    -11.75446256	     -0.07596681	     14.25961573	     -3.63660339	     -1.71002799	     -3.84613362	     -1.90932686	      7.68506290
      1.44150000	     -1.83624788	     -1.11605650	    -10.09469573	      0.86939329	      0.97253454	      0.33706693	    -22.95606625	      3.33255697	      6.39001675	     -7.00634774	     15.06355378	     -0.43984402	      6.17369785	     32.44850934	     -4.40537858	    -11.77882427	     -0.76306611	     14.75904095	     -3.59030847	     -0.47608013	     -3.76183170	     -2.03414679	      7.81869329
      1.44566667	     -1.93192678	     -1.00907717	    -10.26319262	      0.87595886	      0.97139625	      0.33703860	    -23.10175258	      3.09565078	      6.37708386	     -7.20547570	     14.82302417	     -0.35830002	      6.22851045	     32.55991444	     -4.34385416	    -11.59369720	     -1.39426612	     15.14576862	     -3.83532652	     -0.43261114	     -3.55516558	     -2.16764003	      8.06621418
      1.44983333	     -1.97724849	     -0.87655949	    -10.42681659	      0.88260735	      0.97035088	      0.33697645	    -23.29243905	      2.81878182	      6.31849709	     -7.41318073	     14.57406546	     -0.20183229	      6.30228553	     32.60332176	     -4.24208803	    -11.46733731	     -2.01432379	     15.51059641	     -4.00513868	     -0.37452384	     -3.40035205	     -2.33013042	      8.27976487
      1.45400000	     -2.01808962	     -0.73865705	    -10.60278413	      0.88930890	      0.96934438	      0.33691586	    -23.46789657	      2.52997039	      6.26550907	     -7.65760336	     14.29800900	     -0.06841306	      6.35351759	     32.62080126	     -4.13400758	    -11.34881346	     -2.60801223	     15.85612309	     -4.18206656	     -0.32873186	     -3.22842019	     -2.48803001	      8.41513989
      1.45816667	     -2.06657393	     -0.59094396	    -10.75899730	      0.89606867	      0.96834257	      0.33683274	    -23.62503769	      2.23933727	      6.17871731	     -7.91798096	     14.00336720	      0.08395290	      6.41601217	     32.64448808	     -4.00559581	    -11.22932945	     -3.20092771	     16.12344382	     -4.34941492	     -0.27492110	     -3.04999877	     -2.65972684	      8.58702787
      1.46233333	     -2.14622238	     -0.43883128	    -10.90213426	      0.90286799	      0.96730833	      0.33667404	    -23.70794631	      1.94510789	      5.98915904	     -8.25522943	     13.73101386	      0.40508875	      9.13469662	     32.69706035	     -3.86076308	    -11.06249931	     -3.76808681	     16.19773686	     -4.63578978	      1.58549863	     -2.84110901	     -2.82617395	      8.88830731
